{"title":"Devdas 2002 Hindi DvDrip Xvid...Hon3y","uid":7631530,"size":1044043525,"categoryP":"video","categoryS":"movies","magnet":"?xt=urn:btih:67da02d15eeb95360452aeadd99e18d87368af7e&amp;dn=Devdas+2002+Hindi+DvDrip+Xvid...Hon3y&amp;tr=udp%3A%2F%2Ftracker.openbittorrent.com%3A80&amp;tr=udp%3A%2F%2Fopen.demonii.com%3A1337&amp;tr=udp%3A%2F%2Ftracker.coppersurfer.tk%3A6969&amp;tr=udp%3A%2F%2Fexodus.desync.com%3A6969","seeders":1,"leechers":0,"uploader":"honey8ee","files":-1,"time":1347552824,"description":" &lt;a href=&quot;http://www.imdb.com/title/tt0238936/&quot; rel=&quot;nofollow&quot; target=&quot;_NEW&quot;&gt;http://www.imdb.com/title/tt0238936/&lt;/a&gt;\n &lt;a href=&quot;\nhttp://en.wikipedia.org/wiki/Devdas_(2002_film)&quot; rel=&quot;nofollow&quot; target=&quot;_NEW&quot;&gt;\nhttp://en.wikipedia.org/wiki/Devdas_(2002_film)&lt;/a&gt;\n\n\nFormat                                   : AVI\nFormat/Info                              : Audio Video Interleave\nFile size                                : 993 MiB\nDuration                                 : 3h 4mn\nOverall bit rate                         : 751 Kbps\n\nVideo\nID                                       : 0\nFormat                                   : MPEG-4 Visual\nFormat profile                           : Advanced Simple@L5\nFormat settings, BVOP                    : 2\nFormat settings, QPel                    : Yes\nFormat settings, GMC                     : 3 warppoints\nFormat settings, Matrix                  : Default (H.263)\nCodec ID                                 : XVID\nCodec ID/Hint                            : XviD\nDuration                                 : 3h 4mn\nBit rate                                 : 650 Kbps\nWidth                                    : 688 pixels\nHeight                                   : 320 pixels\nDisplay aspect ratio                     : 2.2:1\nFrame rate                               : 23.976 fps\nStream size                              : 858 MiB (86%)\n\nAudio\nID                                       : 1\nFormat                                   : MPEG Audio\nFormat version                           : Version 1\nFormat profile                           : Layer 3\nMode                                     : Joint stereo\nMode extension                           : MS Stereo\nCodec ID                                 : 55\nCodec ID/Hint                            : MP3\nDuration                                 : 3h 4mn\nBit rate mode                            : Constant\nBit rate                                 : 96.0 Kbps\nChannel(s)                               : 2 channels\nSampling rate                            : 32.0 KHz\nCompression mode                         : Lossy\nStream size                              : 127 MiB (13%)\n &lt;a href=&quot;\nhttp://www.shotpix.com/images/98675305796339638324.png&quot; rel=&quot;nofollow&quot; target=&quot;_NEW&quot;&gt;\nhttp://www.shotpix.com/images/98675305796339638324.png&lt;/a&gt;\n &lt;a href=&quot;\nhttp://www.shotpix.com/images/32952162150568380296.png&quot; rel=&quot;nofollow&quot; target=&quot;_NEW&quot;&gt;\nhttp://www.shotpix.com/images/32952162150568380296.png&lt;/a&gt;\n &lt;a href=&quot;\nhttp://www.shotpix.com/images/07898173161897324088.png&quot; rel=&quot;nofollow&quot; target=&quot;_NEW&quot;&gt;\nhttp://www.shotpix.com/images/07898173161897324088.png&lt;/a&gt;\n &lt;a href=&quot;\nhttp://www.shotpix.com/images/13797851183888681561.png&quot; rel=&quot;nofollow&quot; target=&quot;_NEW&quot;&gt;\nhttp://www.shotpix.com/images/13797851183888681561.png&lt;/a&gt;\n &lt;a href=&quot;\nhttp://www.shotpix.com/images/38404607443507673886.png&quot; rel=&quot;nofollow&quot; target=&quot;_NEW&quot;&gt;\nhttp://www.shotpix.com/images/38404607443507673886.png&lt;/a&gt;\n &lt;a href=&quot;\nhttp://www.shotpix.com/images/64431785451494379511.png&quot; rel=&quot;nofollow&quot; target=&quot;_NEW&quot;&gt;\nhttp://www.shotpix.com/images/64431785451494379511.png&lt;/a&gt;\n &lt;a href=&quot;\nhttp://www.shotpix.com/images/66292209716759204100.png&quot; rel=&quot;nofollow&quot; target=&quot;_NEW&quot;&gt;\nhttp://www.shotpix.com/images/66292209716759204100.png&lt;/a&gt;\n &lt;a href=&quot;\nhttp://www.shotpix.com/images/56459029752340609182.png&quot; rel=&quot;nofollow&quot; target=&quot;_NEW&quot;&gt;\nhttp://www.shotpix.com/images/56459029752340609182.png&lt;/a&gt;\n &lt;a href=&quot;\nhttp://www.shotpix.com/images/69118202754102548967.png&quot; rel=&quot;nofollow&quot; target=&quot;_NEW&quot;&gt;\nhttp://www.shotpix.com/images/69118202754102548967.png&lt;/a&gt;\n &lt;a href=&quot;\nhttp://www.shotpix.com/images/13535170216177187839.png&quot; rel=&quot;nofollow&quot; target=&quot;_NEW&quot;&gt;\nhttp://www.shotpix.com/images/13535170216177187839.png&lt;/a&gt;\n &lt;a href=&quot;\nhttp://www.shotpix.com/images/95819270854256832855.png&quot; rel=&quot;nofollow&quot; target=&quot;_NEW&quot;&gt;\nhttp://www.shotpix.com/images/95819270854256832855.png&lt;/a&gt;","torrent":{"xt":"urn:btih:67da02d15eeb95360452aeadd99e18d87368af7e","amp;dn":"Devdas+2002+Hindi+DvDrip+Xvid...Hon3y","amp;tr":["udp%3A%2F%2Ftracker.openbittorrent.com%3A80","udp%3A%2F%2Fopen.demonii.com%3A1337","udp%3A%2F%2Ftracker.coppersurfer.tk%3A6969","udp%3A%2F%2Fexodus.desync.com%3A6969"],"infoHash":"67da02d15eeb95360452aeadd99e18d87368af7e","infoHashBuffer":{"type":"Buffer","data":[103,218,2,209,94,235,149,54,4,82,174,173,217,158,24,216,115,104,175,126]},"announce":[],"urlList":[]}}